Coordinates
version=1
nRows=12
nColumns=24
inDegrees=yes

Units are S.I. units (second, meters, Newtons, ...)
Angles are in degrees.

endheader
time	pelvis_tilt	pelvis_list	pelvis_rotation	pelvis_tx	pelvis_ty	pelvis_tz	hip_flexion_r	hip_adduction_r	hip_rotation_r	knee_angle_r	ankle_angle_r	subtalar_angle_r	mtp_angle_r	hip_flexion_l	hip_adduction_l	hip_rotation_l	knee_angle_l	ankle_angle_l	subtalar_angle_l	mtp_angle_l	lumbar_extension	lumbar_bending	lumbar_rotation
      2.46000000	     61.65585541	      4.51066921	     -1.10875408	      0.77128445	      1.02816713	     -0.28924413	      5.67582750	     -9.73027473	     -2.64354607	    -63.28505575	     20.91151863	     -6.85864329	    -27.50646931	      6.56074769	     -2.21072112	    -15.84757601	    -76.04123730	     15.30642521	     -8.40064700	 125531.41014633	      0.00000000	      0.00000000	      0.00000000
      2.47000000	     61.66112385	      4.50339917	     -1.11078789	      0.77125699	      1.02817506	     -0.28922821	      5.67858454	     -9.70598335	     -2.66447430	    -63.03514111	     20.83801352	     -6.93572456	    -27.64786925	      6.58684043	     -2.24266072	    -15.85999126	    -76.05730164	     16.51274063	     -8.53023149	 127344.24579176	      0.00000000	      0.00000000	      0.00000000
      2.48000000	     61.67389978	      4.49460700	     -1.10469001	      0.77125505	      1.02823934	     -0.28920547	      5.70100006	     -9.68519644	     -2.66404281	    -62.80781699	     20.72908920	     -7.02298985	    -27.82462771	      6.61166017	     -2.27349946	    -15.87518323	    -76.11932362	     17.86600350	     -8.39931003	 129157.38822171	      0.00000000	      0.00000000	      0.00000000
      2.49000000	     61.68518306	      4.48766103	     -1.09814797	      0.77126028	      1.02826807	     -0.28919704	      5.73404110	     -9.66713925	     -2.65123961	    -62.60375697	     20.59426329	     -7.12798139	    -28.02185213	      6.63155321	     -2.29456554	    -15.89267266	    -76.22079351	     19.27772053	     -8.04571404	 130970.28132104	      0.00000000	      0.00000000	      0.00000000
      2.50000000	     61.68785764	      4.48487179	     -1.09852953	      0.77125347	      1.02823097	     -0.28920682	      5.76845302	     -9.65077784	     -2.63935765	    -62.42086838	     20.44773721	     -7.25620149	    -28.22118420	      6.64272523	     -2.29868719	    -15.91229178	    -76.34897580	     20.64821239	     -7.55039155	 132782.31374969	      0.00000000	      0.00000000	      0.00000000
      2.51000000	     61.68296928	      4.48603029	     -1.10723428	      0.77122902	      1.02817516	     -0.28922072	      5.79996235	     -9.63717891	     -2.63874751	    -62.25449691	     20.30403888	     -7.40787636	    -28.40343836	      6.64232974	     -2.28405801	    -15.93312418	    -76.48389189	     21.87711406	     -7.02549928	 134592.84740228	      0.00000000	      0.00000000	      0.00000000
      2.52000000	     61.67739382	      4.48973420	     -1.12032915	      0.77120067	      1.02813487	     -0.28923572	      5.82540864	     -9.62891965	     -2.65325724	    -62.10048677	     20.17440655	     -7.57665025	    -28.55161826	      6.63137490	     -2.25537517	    -15.95297754	    -76.59897141	     22.87159056	     -6.59289419	 136401.25262751	      0.00000000	      0.00000000	      0.00000000
      2.53000000	     61.67773497	      4.49466913	     -1.13222074	      0.77118980	      1.02810795	     -0.28925734	      5.83979283	     -9.62748256	     -2.68090609	    -61.95735615	     20.06529642	     -7.75069916	    -28.65351601	      6.61347526	     -2.22071920	    -15.96826244	    -76.66632798	     23.55184894	     -6.35658478	 138206.94852066	      0.00000000	      0.00000000	      0.00000000
      2.54000000	     61.68607912	      4.49974636	     -1.13895785	      0.77119397	      1.02809418	     -0.28928158	      5.83910309	     -9.63124850	     -2.71665968	    -61.82574008	     19.97894933	     -7.91555843	    -28.70334011	      6.58934768	     -2.18691319	    -15.97379212	    -76.66485865	     23.85505461	     -6.37519066	 140009.44576809	      0.00000000	      0.00000000	      0.00000000
      2.55000000	     61.70035520	      4.50404214	     -1.14001586	      0.77119148	      1.02810785	     -0.28929907	      5.82360274	     -9.63625499	     -2.75479759	    -61.70716478	     19.91494083	     -8.05731283	    -28.70217083	      6.55468541	     -2.15771339	    -15.96294022	    -76.58532977	     23.73937284	     -6.64157284	 141808.38889576	      0.00000000	      0.00000000	      0.00000000
      2.56000000	     61.71686344	      4.50668425	     -1.13797453	      0.77116785	      1.02814629	     -0.28930280	      5.79715463	     -9.63888592	     -2.79009173	    -61.60399941	     19.87164377	     -8.16507561	    -28.65729824	      6.50353930	     -2.13451321	    -15.92925149	    -76.43090454	     23.18907146	     -7.07602589	 143603.59445174	      0.00000000	      0.00000000	      0.00000000
      2.57000000	     61.73279322	      4.50709414	     -1.13635605	      0.77113391	      1.02818597	     -0.28929220	      5.76513715	     -9.63750716	     -2.81861356	    -61.51960821	     19.84706901	     -8.23235014	    -28.58063883	      6.43246942	     -2.11667513	    -15.86944738	    -76.21622437	     22.22015493	     -7.53688316	 145395.08167153	      0.00000000	      0.00000000	      0.00000000
